<svg width="60" height="36" viewBox="0 0 60 36" fill="none" xmlns="http://www.w3.org/2000/svg">
<g clip-path="url(#clip0_1_604)">
<path d="M52.6734 14.265C53.3353 13.9611 53.8471 13.4121 54.1036 12.7154C54.4035 11.901 54.3082 11.014 53.8424 10.282L49.1436 2.8982C48.6347 2.09852 47.765 1.62109 46.8171 1.62109H45.0304C44.7421 1.62109 44.4722 1.76254 44.3079 1.99937C44.1437 2.23621 44.1061 2.53867 44.2073 2.80855L45.1711 5.37859H43.1515C42.6661 5.37859 42.2726 5.77211 42.2726 6.2575C42.2726 6.74289 42.6661 7.13641 43.1515 7.13641H45.8303L46.0736 7.78527C46.1904 8.09676 46.1487 8.43226 45.9592 8.70578C45.7696 8.9793 45.47 9.13609 45.1373 9.13609H40.2728V9.07562C40.2728 6.51906 38.1928 4.43922 35.6364 4.43922H31.6968C29.798 4.43922 27.9357 5.09242 26.4531 6.27859L24.0554 8.19672H20.0818C19.4895 8.19672 18.9375 7.93141 18.5675 7.46898L16.7843 5.23996C15.8996 4.13406 14.58 3.49984 13.1638 3.49984H7.45465C7.07789 3.49984 6.74309 3.73996 6.62215 4.0968C6.50121 4.45363 6.62133 4.84773 6.92051 5.07672L23.4462 17.7216L21.0657 20.4194L18.2488 18.8489C17.8242 18.613 17.3332 18.5567 16.8662 18.6902C16.3992 18.8236 16.012 19.1309 15.7762 19.5556L14.8639 21.1982C14.628 21.6228 14.5717 22.1138 14.7052 22.5808C14.7518 22.7441 14.8209 22.8968 14.9075 23.0375C14.9875 23.3861 15.0304 23.7445 15.0304 24.1059C15.0304 26.7292 12.8961 28.8633 10.2729 28.8633C7.64965 28.8633 5.51543 26.7292 5.51543 24.1059C5.51543 21.4826 7.64953 19.3484 10.2729 19.3484C11.0259 19.3484 11.7458 19.519 12.4125 19.8554C12.8457 20.0739 13.3744 19.9 13.593 19.4665C13.8117 19.0332 13.6377 18.5046 13.2043 18.2859C12.2898 17.8245 11.3036 17.5905 10.2729 17.5905C6.68039 17.5905 3.75762 20.5132 3.75762 24.1057C3.75762 27.6982 6.68027 30.621 10.2729 30.621C13.7836 30.621 16.653 27.8295 16.782 24.3497L18.687 25.4179C18.052 29.5543 14.5104 32.6208 10.2728 32.6208C5.57766 32.6211 1.75781 28.8012 1.75781 24.106C1.75781 19.4109 5.57766 15.591 10.2728 15.591C11.927 15.591 13.5306 16.0655 14.9101 16.9633C15.3169 17.2279 15.8614 17.1128 16.1262 16.7059C16.3909 16.2991 16.2757 15.7546 15.8688 15.4899C14.2034 14.406 12.2681 13.8332 10.2728 13.8332C4.6084 13.8332 0 18.4417 0 24.106C0 29.7705 4.6084 34.3789 10.2728 34.3789C12.8336 34.3789 15.2866 33.4311 17.1802 31.71C18.7655 30.2691 19.8478 28.3877 20.3025 26.324L22.8654 27.7609C23.5151 28.9486 24.7429 29.682 26.1055 29.682H37.9157C38.9209 29.682 39.8354 29.287 40.5041 28.6323C42.2033 32.0931 45.7594 34.379 49.7273 34.379C55.3917 34.379 60.0001 29.7706 60.0001 24.1061C60 19.4652 56.9065 15.5345 52.6734 14.265ZM49.7272 23.1061C50.2786 23.1061 50.7271 23.5547 50.7271 24.106C50.7271 24.6573 50.2785 25.1059 49.7272 25.1059C49.176 25.1059 48.7274 24.6573 48.7274 24.106C48.7274 23.5547 49.1759 23.1061 49.7272 23.1061ZM27.5511 7.65133C28.7234 6.71359 30.1956 6.19715 31.6968 6.19715H35.6364C37.2237 6.19715 38.515 7.48855 38.515 9.07574V9.13621H32.1435C31.1714 9.13621 30.2395 9.4348 29.4486 9.99988L27.3036 11.5321L25.5783 9.22961L27.5511 7.65133ZM13.1638 5.25777C14.043 5.25777 14.8624 5.65152 15.4117 6.33812L17.1949 8.56715C17.9004 9.44887 18.9526 9.95465 20.0818 9.95465H23.9246L29.6705 17.6062C28.8251 17.6813 28.061 18.0419 27.475 18.5909L10.0495 5.25777H13.1638ZM30 19.3486C31.0693 19.3486 31.9392 20.2186 31.9392 21.288C31.9392 22.3573 31.0693 23.2272 30 23.2272C28.9307 23.2272 28.0608 22.3573 28.0608 21.288C28.0608 20.2186 28.9307 19.3486 30 19.3486ZM24.8457 18.7927L26.5111 20.067C26.3768 20.4495 26.303 20.8602 26.303 21.288C26.303 21.292 26.3032 21.2958 26.3033 21.2999L24.6812 22.4353L22.6371 21.2957L24.8457 18.7927ZM16.4006 22.0519L17.313 20.4092C17.316 20.4038 17.3252 20.3873 17.3493 20.3804C17.3734 20.3736 17.3898 20.3827 17.3941 20.385L23.0809 23.5554L22.645 23.8606C22.1945 24.1761 21.9271 24.672 21.8802 25.193L16.4243 22.1341C16.4189 22.131 16.4024 22.1219 16.3955 22.0978C16.3886 22.0738 16.3976 22.0574 16.4006 22.0519ZM37.9155 27.9242H26.1054C25.3661 27.9242 24.7015 27.5134 24.3708 26.8523L23.6334 25.3775C23.6201 25.3507 23.6285 25.3178 23.6528 25.3008L26.7843 23.1088C27.4205 24.228 28.623 24.9851 29.9999 24.9851C32.0385 24.9851 33.6969 23.3267 33.6969 21.2881C33.6969 20.41 33.3887 19.6029 32.8754 18.968L30.6116 15.947L32.4089 14.6632C32.4193 14.6559 32.4315 14.6519 32.4442 14.6519H41.2724C41.7578 14.6519 42.1513 14.2584 42.1513 13.773C42.1513 13.2875 41.7578 12.8941 41.2724 12.8941H32.4442C32.0631 12.8941 31.6977 13.0111 31.3873 13.2327L29.557 14.54L28.3576 12.9394L30.47 11.4306C30.9611 11.0799 31.5396 10.8944 32.1431 10.8944H45.1369C46.0411 10.8944 46.8885 10.4506 47.4035 9.7075C47.9186 8.96441 48.0364 8.0152 47.719 7.1684L46.2981 3.37926H46.8166C47.1604 3.37926 47.4757 3.55234 47.6602 3.84238L52.3589 11.226C52.5279 11.4914 52.5623 11.813 52.4537 12.1083C52.3451 12.4036 52.1102 12.6259 51.8094 12.7185L46.4548 14.3662C43.4004 15.306 41.1128 17.9541 40.6269 21.1127L39.8319 26.28C39.6857 27.2325 38.8795 27.9242 37.9155 27.9242ZM49.7272 32.6211C45.9599 32.6211 42.6407 30.1359 41.5692 26.5489C41.5693 26.5483 41.5695 26.5476 41.5696 26.547L42.3646 21.3795C42.6953 19.2299 44.082 17.3802 46.0017 16.4329L46.6948 18.3387C44.5624 19.4587 43.2118 21.6661 43.2118 24.106C43.2118 27.6985 46.1346 30.6212 49.7271 30.6212C53.3196 30.6212 56.2424 27.6985 56.2424 24.106C56.2424 21.6755 54.9045 19.4637 52.7507 18.3336C52.3208 18.108 51.7895 18.2736 51.564 18.7034C51.3384 19.1332 51.504 19.6645 51.9339 19.89C53.5072 20.7155 54.4846 22.3311 54.4846 24.106C54.4846 26.7293 52.3505 28.8634 49.7271 28.8634C47.1038 28.8634 44.9696 26.7293 44.9696 24.106C44.9696 22.4058 45.8678 20.8602 47.303 20.0116L48.0084 21.9517C47.3757 22.4575 46.9693 23.2349 46.9693 24.106C46.9693 25.6266 48.2065 26.8637 49.727 26.8637C51.2475 26.8637 52.4846 25.6266 52.4846 24.106C52.4846 22.5854 51.2475 21.3483 49.727 21.3483C49.7045 21.3483 49.6823 21.3495 49.66 21.3501L47.6583 15.8452C48.3315 15.6771 49.0248 15.591 49.727 15.591C54.4221 15.591 58.242 19.4109 58.242 24.106C58.2422 28.8012 54.4223 32.6211 49.7272 32.6211Z" fill="#4A101D"/>
<path d="M10.2728 21.3483C8.75217 21.3483 7.51514 22.5854 7.51514 24.1059C7.51514 25.6265 8.75229 26.8637 10.2728 26.8637C11.7933 26.8637 13.0304 25.6265 13.0304 24.1059C13.0304 22.5854 11.7934 21.3483 10.2728 21.3483ZM10.2728 25.1059C9.72143 25.1059 9.27295 24.6573 9.27295 24.1059C9.27295 23.5547 9.72154 23.1061 10.2728 23.1061C10.824 23.1061 11.2726 23.5547 11.2726 24.1059C11.2726 24.6574 10.8242 25.1059 10.2728 25.1059Z" fill="#4A101D"/>
</g>
<defs>
<clipPath id="clip0_1_604">
<rect width="60" height="36" fill="white"/>
</clipPath>
</defs>
</svg>
