<svg width="16" height="16" viewBox="0 0 16 16" fill="none" xmlns="http://www.w3.org/2000/svg">
<path d="M9.33325 10.6666C9.33325 11.8466 8.81992 12.9133 7.99992 13.64C7.29325 14.28 6.35992 14.6666 5.33325 14.6666C3.12659 14.6666 1.33325 12.8733 1.33325 10.6666C1.33325 8.82664 2.58659 7.26664 4.27992 6.80664C4.73992 7.96664 5.72659 8.85997 6.94659 9.19331C7.27992 9.28664 7.63325 9.33331 7.99992 9.33331C8.36659 9.33331 8.71992 9.28664 9.05325 9.19331C9.23325 9.64664 9.33325 10.1466 9.33325 10.6666Z" stroke="#080706" stroke-linecap="round" stroke-linejoin="round"/>
<path d="M12 5.33325C12 5.85325 11.9 6.35325 11.72 6.80659C11.26 7.96659 10.2733 8.85992 9.05333 9.19325C8.72 9.28659 8.36667 9.33325 8 9.33325C7.63333 9.33325 7.28 9.28659 6.94667 9.19325C5.72667 8.85992 4.74 7.96659 4.28 6.80659C4.1 6.35325 4 5.85325 4 5.33325C4 3.12659 5.79333 1.33325 8 1.33325C10.2067 1.33325 12 3.12659 12 5.33325Z" stroke="#080706" stroke-linecap="round" stroke-linejoin="round"/>
<path d="M14.6667 10.6666C14.6667 12.8733 12.8733 14.6666 10.6667 14.6666C9.64 14.6666 8.70667 14.28 8 13.64C8.82 12.9133 9.33333 11.8466 9.33333 10.6666C9.33333 10.1466 9.23333 9.64664 9.05333 9.19331C10.2733 8.85997 11.26 7.96664 11.72 6.80664C13.4133 7.26664 14.6667 8.82664 14.6667 10.6666Z" stroke="#080706" stroke-linecap="round" stroke-linejoin="round"/>
</svg>
