<svg width="32" height="33" viewBox="0 0 32 33" fill="none" xmlns="http://www.w3.org/2000/svg">
<path d="M18.6665 21.8333C18.6665 24.1933 17.6398 26.3266 15.9998 27.7799C14.5865 29.0599 12.7198 29.8333 10.6665 29.8333C6.25317 29.8333 2.6665 26.2466 2.6665 21.8333C2.6665 18.1533 5.17317 15.0333 8.55984 14.1133C9.47984 16.4333 11.4532 18.2199 13.8932 18.8866C14.5598 19.0733 15.2665 19.1666 15.9998 19.1666C16.7332 19.1666 17.4398 19.0733 18.1065 18.8866C18.4665 19.7933 18.6665 20.7933 18.6665 21.8333Z" stroke="#4A101D" stroke-width="2" stroke-linecap="round" stroke-linejoin="round"/>
<path d="M23.9999 11.1667C23.9999 12.2067 23.7999 13.2067 23.4399 14.1134C22.5199 16.4334 20.5465 18.2201 18.1065 18.8867C17.4399 19.0734 16.7332 19.1667 15.9999 19.1667C15.2665 19.1667 14.5599 19.0734 13.8932 18.8867C11.4532 18.2201 9.47988 16.4334 8.55988 14.1134C8.19988 13.2067 7.99988 12.2067 7.99988 11.1667C7.99988 6.75341 11.5865 3.16675 15.9999 3.16675C20.4132 3.16675 23.9999 6.75341 23.9999 11.1667Z" stroke="#4A101D" stroke-width="2" stroke-linecap="round" stroke-linejoin="round"/>
<path opacity="0.4" d="M29.3332 21.8333C29.3332 26.2466 25.7465 29.8333 21.3332 29.8333C19.2799 29.8333 17.4132 29.0599 15.9999 27.7799C17.6399 26.3266 18.6665 24.1933 18.6665 21.8333C18.6665 20.7933 18.4665 19.7933 18.1065 18.8866C20.5465 18.2199 22.5199 16.4333 23.4399 14.1133C26.8265 15.0333 29.3332 18.1533 29.3332 21.8333Z" stroke="#4A101D" stroke-width="2" stroke-linecap="round" stroke-linejoin="round"/>
</svg>
