<svg width="32" height="32" viewBox="0 0 32 32" fill="none" xmlns="http://www.w3.org/2000/svg">
<g clip-path="url(#clip0_1_1007)">
<path d="M3.99988 13.3333V21.3333" stroke="#4A101D" stroke-width="2" stroke-linecap="round" stroke-linejoin="round"/>
<path opacity="0.4" d="M15.9999 6.66675V10.6667" stroke="#4A101D" stroke-width="2" stroke-linecap="round" stroke-linejoin="round"/>
<path d="M13.3331 6.66675H18.6665" stroke="#4A101D" stroke-width="2" stroke-linecap="round" stroke-linejoin="round"/>
<path opacity="0.4" d="M6.66654 17.3333H3.99988" stroke="#4A101D" stroke-width="2" stroke-linecap="round" stroke-linejoin="round"/>
<path d="M7.99988 13.3334H10.6665L13.3332 10.6667H17.8425C18.0901 10.6669 18.3327 10.7359 18.5432 10.8662C18.7538 10.9964 18.9239 11.1826 19.0345 11.4041L20.9652 15.2627C21.0759 15.4842 21.246 15.6705 21.4565 15.8007C21.667 15.9309 21.9097 15.9999 22.1572 16.0001H23.9999V13.3334H26.6665C27.0202 13.3334 27.3593 13.4739 27.6094 13.7239C27.8594 13.974 27.9999 14.3131 27.9999 14.6667V22.6667C27.9999 23.0204 27.8594 23.3595 27.6094 23.6096C27.3593 23.8596 27.0202 24.0001 26.6665 24.0001H23.9999V21.3334H19.9999V24.0001C19.9999 24.3537 19.8594 24.6928 19.6094 24.9429C19.3593 25.1929 19.0202 25.3334 18.6665 25.3334H14.0465C13.8271 25.3334 13.611 25.2793 13.4175 25.1758C13.224 25.0723 13.059 24.9226 12.9372 24.7401L10.6665 21.3334H7.99988V13.3334Z" stroke="#4A101D" stroke-width="2" stroke-linecap="round" stroke-linejoin="round"/>
</g>
<defs>
<clipPath id="clip0_1_1007">
<rect width="32" height="32" fill="white"/>
</clipPath>
</defs>
</svg>
