<svg width="16" height="16" viewBox="0 0 16 16" fill="none" xmlns="http://www.w3.org/2000/svg">
<g clip-path="url(#clip0_1_1071)">
<path d="M2 3.99996C2 4.35358 2.14048 4.69272 2.39052 4.94277C2.64057 5.19282 2.97971 5.33329 3.33333 5.33329C3.68696 5.33329 4.02609 5.19282 4.27614 4.94277C4.52619 4.69272 4.66667 4.35358 4.66667 3.99996C4.66667 3.64634 4.52619 3.3072 4.27614 3.05715C4.02609 2.8071 3.68696 2.66663 3.33333 2.66663C2.97971 2.66663 2.64057 2.8071 2.39052 3.05715C2.14048 3.3072 2 3.64634 2 3.99996Z" stroke="#080706" stroke-linecap="round" stroke-linejoin="round"/>
<path d="M6.66675 3.99996C6.66675 4.35358 6.80722 4.69272 7.05727 4.94277C7.30732 5.19282 7.64646 5.33329 8.00008 5.33329C8.3537 5.33329 8.69284 5.19282 8.94289 4.94277C9.19294 4.69272 9.33341 4.35358 9.33341 3.99996C9.33341 3.64634 9.19294 3.3072 8.94289 3.05715C8.69284 2.8071 8.3537 2.66663 8.00008 2.66663C7.64646 2.66663 7.30732 2.8071 7.05727 3.05715C6.80722 3.3072 6.66675 3.64634 6.66675 3.99996Z" stroke="#080706" stroke-linecap="round" stroke-linejoin="round"/>
<path d="M11.3334 3.99996C11.3334 4.35358 11.4739 4.69272 11.7239 4.94277C11.9739 5.19282 12.3131 5.33329 12.6667 5.33329C13.0203 5.33329 13.3595 5.19282 13.6095 4.94277C13.8596 4.69272 14 4.35358 14 3.99996C14 3.64634 13.8596 3.3072 13.6095 3.05715C13.3595 2.8071 13.0203 2.66663 12.6667 2.66663C12.3131 2.66663 11.9739 2.8071 11.7239 3.05715C11.4739 3.3072 11.3334 3.64634 11.3334 3.99996Z" stroke="#080706" stroke-linecap="round" stroke-linejoin="round"/>
<path d="M2 12C2 12.3536 2.14048 12.6927 2.39052 12.9428C2.64057 13.1928 2.97971 13.3333 3.33333 13.3333C3.68696 13.3333 4.02609 13.1928 4.27614 12.9428C4.52619 12.6927 4.66667 12.3536 4.66667 12C4.66667 11.6463 4.52619 11.3072 4.27614 11.0572C4.02609 10.8071 3.68696 10.6666 3.33333 10.6666C2.97971 10.6666 2.64057 10.8071 2.39052 11.0572C2.14048 11.3072 2 11.6463 2 12Z" stroke="#080706" stroke-linecap="round" stroke-linejoin="round"/>
<path d="M6.66675 12C6.66675 12.3536 6.80722 12.6927 7.05727 12.9428C7.30732 13.1928 7.64646 13.3333 8.00008 13.3333C8.3537 13.3333 8.69284 13.1928 8.94289 12.9428C9.19294 12.6927 9.33341 12.3536 9.33341 12C9.33341 11.6463 9.19294 11.3072 8.94289 11.0572C8.69284 10.8071 8.3537 10.6666 8.00008 10.6666C7.64646 10.6666 7.30732 10.8071 7.05727 11.0572C6.80722 11.3072 6.66675 11.6463 6.66675 12Z" stroke="#080706" stroke-linecap="round" stroke-linejoin="round"/>
<path d="M3.33337 5.33337V10.6667" stroke="#080706" stroke-linecap="round" stroke-linejoin="round"/>
<path d="M8 5.33337V10.6667" stroke="#080706" stroke-linecap="round" stroke-linejoin="round"/>
<path d="M12.6667 5.33337V6.66671C12.6667 7.02033 12.5262 7.35947 12.2762 7.60952C12.0261 7.85956 11.687 8.00004 11.3334 8.00004H3.33337" stroke="#080706" stroke-linecap="round" stroke-linejoin="round"/>
</g>
<defs>
<clipPath id="clip0_1_1071">
<rect width="16" height="16" fill="white"/>
</clipPath>
</defs>
</svg>
