<svg width="32" height="33" viewBox="0 0 32 33" fill="none" xmlns="http://www.w3.org/2000/svg">
<g clip-path="url(#clip0_1_998)">
<path fill-rule="evenodd" clip-rule="evenodd" d="M20.9907 3.20655C21.1058 3.23526 21.2165 3.2792 21.32 3.33721C23.2493 3.84388 24.804 5.43055 25.88 7.36655C27.216 9.77188 28 13.0025 28 16.4999C28 19.9959 27.216 23.2279 25.88 25.6332C24.804 27.5679 23.2493 29.1545 21.32 29.6625C21.2161 29.7206 21.1049 29.7646 20.9893 29.7932C16.0987 31.0159 13.2067 30.6545 11.016 29.8465L10.5573 29.6652C10.4096 29.6041 10.2629 29.5405 10.1173 29.4745C8.25467 28.6305 6.73333 26.8425 5.688 24.6239C4.63067 22.3799 4 19.5785 4 16.4999C4 13.4212 4.63067 10.6199 5.688 8.37588C6.73333 6.15721 8.25333 4.36921 10.116 3.52655C10.26 3.46121 10.4067 3.39721 10.556 3.33588L11.016 3.15588C13.2067 2.34655 16.0987 1.98521 20.9893 3.20788L20.9907 3.20655ZM11.2173 5.95322C10.128 6.44788 8.98267 7.63722 8.1 9.51322C7.22667 11.3639 6.66667 13.7732 6.66667 16.4999C6.66667 19.2265 7.22667 21.6359 8.1 23.4865C8.98267 25.3625 10.1267 26.5519 11.2173 27.0465C12.2973 27.5359 13.6467 27.9825 15.7987 27.9132C15.1384 27.2328 14.5737 26.4658 14.12 25.6332C12.784 23.2279 12 19.9959 12 16.4999C12 13.0025 12.784 9.77188 14.12 7.36655C14.5741 6.53394 15.1393 5.76691 15.8 5.08655C13.6467 5.01722 12.2973 5.46388 11.2173 5.95322ZM20 5.83321C18.8627 5.83321 17.5533 6.67855 16.452 8.66255C15.3733 10.6012 14.6667 13.3692 14.6667 16.4999C14.6667 19.6305 15.3733 22.3985 16.452 24.3372C17.5533 26.3212 18.8627 27.1665 20 27.1665C21.1373 27.1665 22.4467 26.3212 23.548 24.3372C24.6267 22.3985 25.3333 19.6305 25.3333 16.4999C25.3333 13.3692 24.6267 10.6012 23.548 8.66255C22.4467 6.67855 21.1373 5.83321 20 5.83321ZM20 11.1665C21.3293 11.1665 22.1733 12.2092 22.6067 13.0745C23.08 14.0212 23.3333 15.2332 23.3333 16.4999C23.3333 17.7665 23.08 18.9799 22.6067 19.9252C22.1747 20.7906 21.3293 21.8319 20 21.8319C18.6707 21.8319 17.8267 20.7906 17.3933 19.9252C16.92 18.9785 16.6667 17.7652 16.6667 16.4985C16.6667 15.2319 16.92 14.0199 17.3933 13.0745C17.8267 12.2092 18.6707 11.1665 20 11.1665ZM20 13.9132C19.9427 13.9799 19.8667 14.0905 19.7787 14.2679C19.5267 14.7705 19.3333 15.5572 19.3333 16.4999C19.3333 17.4425 19.5267 18.2292 19.7787 18.7319C19.8667 18.9092 19.9427 19.0199 20 19.0865C20.0573 19.0199 20.1333 18.9092 20.2213 18.7319C20.4733 18.2292 20.6667 17.4425 20.6667 16.4999C20.6667 15.5572 20.4733 14.7705 20.2213 14.2679C20.1618 14.1413 20.0875 14.0223 20 13.9132Z" fill="#4A101D"/>
</g>
<defs>
<clipPath id="clip0_1_998">
<rect width="32" height="32" fill="white" transform="translate(0 0.5)"/>
</clipPath>
</defs>
</svg>
