<svg width="32" height="32" viewBox="0 0 32 32" fill="none" xmlns="http://www.w3.org/2000/svg">
<path d="M18.6666 6.66667C18.6666 5.2 17.4666 4 16 4C14.5333 4 13.3333 5.2 13.3333 6.66667C13.3333 8.13333 14.5333 9.33333 16 9.33333C17.4666 9.33333 18.6666 8.13333 18.6666 6.66667Z" stroke="white" stroke-width="2"/>
<path d="M18.6666 25.3333C18.6666 23.8666 17.4666 22.6666 16 22.6666C14.5333 22.6666 13.3333 23.8666 13.3333 25.3333C13.3333 26.8 14.5333 28 16 28C17.4666 28 18.6666 26.8 18.6666 25.3333Z" stroke="white" stroke-width="2"/>
<path d="M18.6666 16C18.6666 14.5334 17.4666 13.3334 16 13.3334C14.5333 13.3334 13.3333 14.5334 13.3333 16C13.3333 17.4667 14.5333 18.6667 16 18.6667C17.4666 18.6667 18.6666 17.4667 18.6666 16Z" stroke="white" stroke-width="2"/>
</svg>
